<?xml version="1.0" encoding="utf-8" standalone="no"?>
<!DOCTYPE svg PUBLIC "-//W3C//DTD SVG 1.1//EN"
  "http://www.w3.org/Graphics/SVG/1.1/DTD/svg11.dtd">
<svg xmlns:xlink="http://www.w3.org/1999/xlink" width="2932.56pt" height="2204.876598pt" viewBox="0 0 2932.56 2204.876598" xmlns="http://www.w3.org/2000/svg" version="1.1">
 <metadata>
  <rdf:RDF xmlns:dc="http://purl.org/dc/elements/1.1/" xmlns:cc="http://creativecommons.org/ns#" xmlns:rdf="http://www.w3.org/1999/02/22-rdf-syntax-ns#">
   <cc:Work>
    <dc:type rdf:resource="http://purl.org/dc/dcmitype/StillImage"/>
    <dc:date>2025-08-29T17:46:36.879532</dc:date>
    <dc:format>image/svg+xml</dc:format>
    <dc:creator>
     <cc:Agent>
      <dc:title>Matplotlib v3.10.5, https://matplotlib.org/</dc:title>
     </cc:Agent>
    </dc:creator>
   </cc:Work>
  </rdf:RDF>
 </metadata>
 <defs>
  <style type="text/css">*{stroke-linejoin: round; stroke-linecap: butt}</style>
 </defs>
 <g id="figure_1">
  <g id="patch_1">
   <path d="M 0 2204.876598 
L 2932.56 2204.876598 
L 2932.56 0 
L 0 0 
z
" style="fill: #ffffff"/>
  </g>
  <g id="axes_1">
   <g id="patch_2">
    <path d="M 154.96 997.143097 
L 1501.47 997.143097 
L 1501.47 15.102292 
L 154.96 15.102292 
z
" style="fill: #ffffff"/>
   </g>
   <g id="patch_3">
    <path d="M 216.165 997.143097 
L 307.321383 997.143097 
L 307.321383 61.86614 
L 216.165 61.86614 
z
" clip-path="url(#p69a7f4132a)" style="fill: #1f77b4"/>
   </g>
   <g id="patch_4">
    <path d="M 476.611809 997.143097 
L 567.768191 997.143097 
L 567.768191 63.840658 
L 476.611809 63.840658 
z
" clip-path="url(#p69a7f4132a)" style="fill: #1f77b4"/>
   </g>
   <g id="patch_5">
    <path d="M 737.058617 997.143097 
L 828.215 997.143097 
L 828.215 71.718362 
L 737.058617 71.718362 
z
" clip-path="url(#p69a7f4132a)" style="fill: #1f77b4"/>
   </g>
   <g id="patch_6">
    <path d="M 997.505426 997.143097 
L 1088.661809 997.143097 
L 1088.661809 136.584446 
L 997.505426 136.584446 
z
" clip-path="url(#p69a7f4132a)" style="fill: #1f77b4"/>
   </g>
   <g id="patch_7">
    <path d="M 1257.952234 997.143097 
L 1349.108617 997.143097 
L 1349.108617 559.156476 
L 1257.952234 559.156476 
z
" clip-path="url(#p69a7f4132a)" style="fill: #1f77b4"/>
   </g>
   <g id="patch_8">
    <path d="M 307.321383 997.143097 
L 398.477766 997.143097 
L 398.477766 187.440749 
L 307.321383 187.440749 
z
" clip-path="url(#p69a7f4132a)" style="fill: #ff7f0e"/>
   </g>
   <g id="patch_9">
    <path d="M 567.768191 997.143097 
L 658.924574 997.143097 
L 658.924574 189.415277 
L 567.768191 189.415277 
z
" clip-path="url(#p69a7f4132a)" style="fill: #ff7f0e"/>
   </g>
   <g id="patch_10">
    <path d="M 828.215 997.143097 
L 919.371383 997.143097 
L 919.371383 197.292981 
L 828.215 197.292981 
z
" clip-path="url(#p69a7f4132a)" style="fill: #ff7f0e"/>
   </g>
   <g id="patch_11">
    <path d="M 1088.661809 997.143097 
L 1179.818191 997.143097 
L 1179.818191 262.159065 
L 1088.661809 262.159065 
z
" clip-path="url(#p69a7f4132a)" style="fill: #ff7f0e"/>
   </g>
   <g id="patch_12">
    <path d="M 1349.108617 997.143097 
L 1440.265 997.143097 
L 1440.265 567.29908 
L 1349.108617 567.29908 
z
" clip-path="url(#p69a7f4132a)" style="fill: #ff7f0e"/>
   </g>
   <g id="matplotlib.axis_1">
    <g id="xtick_1">
     <g id="line2d_1">
      <defs>
       <path id="m82e9089370" d="M 0 0 
L 0 3.5 
" style="stroke: #000000; stroke-width: 0.8"/>
      </defs>
      <g>
       <use xlink:href="#m82e9089370" x="307.321383" y="997.143097" style="stroke: #000000; stroke-width: 0.8"/>
      </g>
     </g>
    </g>
    <g id="xtick_2">
     <g id="line2d_2">
      <g>
       <use xlink:href="#m82e9089370" x="567.768191" y="997.143097" style="stroke: #000000; stroke-width: 0.8"/>
      </g>
     </g>
    </g>
    <g id="xtick_3">
     <g id="line2d_3">
      <g>
       <use xlink:href="#m82e9089370" x="828.215" y="997.143097" style="stroke: #000000; stroke-width: 0.8"/>
      </g>
     </g>
    </g>
    <g id="xtick_4">
     <g id="line2d_4">
      <g>
       <use xlink:href="#m82e9089370" x="1088.661809" y="997.143097" style="stroke: #000000; stroke-width: 0.8"/>
      </g>
     </g>
    </g>
    <g id="xtick_5">
     <g id="line2d_5">
      <g>
       <use xlink:href="#m82e9089370" x="1349.108617" y="997.143097" style="stroke: #000000; stroke-width: 0.8"/>
      </g>
     </g>
    </g>
   </g>
   <g id="matplotlib.axis_2">
    <g id="ytick_1">
     <g id="line2d_6">
      <defs>
       <path id="m93d3328e62" d="M 0 0 
L -3.5 0 
" style="stroke: #000000; stroke-width: 0.8"/>
      </defs>
      <g>
       <use xlink:href="#m93d3328e62" x="154.96" y="997.143097" style="stroke: #000000; stroke-width: 0.8"/>
      </g>
     </g>
     <g id="text_1">
      <!-- 0.0 -->
      <g transform="translate(84.3475 1012.339972) scale(0.4 -0.4)">
       <defs>
        <path id="DejaVuSans-30" d="M 2034 4250 
Q 1547 4250 1301 3770 
Q 1056 3291 1056 2328 
Q 1056 1369 1301 889 
Q 1547 409 2034 409 
Q 2525 409 2770 889 
Q 3016 1369 3016 2328 
Q 3016 3291 2770 3770 
Q 2525 4250 2034 4250 
z
M 2034 4750 
Q 2819 4750 3233 4129 
Q 3647 3509 3647 2328 
Q 3647 1150 3233 529 
Q 2819 -91 2034 -91 
Q 1250 -91 836 529 
Q 422 1150 422 2328 
Q 422 3509 836 4129 
Q 1250 4750 2034 4750 
z
" transform="scale(0.015625)"/>
        <path id="DejaVuSans-2e" d="M 684 794 
L 1344 794 
L 1344 0 
L 684 0 
L 684 794 
z
" transform="scale(0.015625)"/>
       </defs>
       <use xlink:href="#DejaVuSans-30"/>
       <use xlink:href="#DejaVuSans-2e" transform="translate(63.623047 0)"/>
       <use xlink:href="#DejaVuSans-30" transform="translate(95.410156 0)"/>
      </g>
     </g>
    </g>
    <g id="ytick_2">
     <g id="line2d_7">
      <g>
       <use xlink:href="#m93d3328e62" x="154.96" y="871.990458" style="stroke: #000000; stroke-width: 0.8"/>
      </g>
     </g>
     <g id="text_2">
      <!-- 0.2 -->
      <g transform="translate(84.3475 887.187333) scale(0.4 -0.4)">
       <defs>
        <path id="DejaVuSans-32" d="M 1228 531 
L 3431 531 
L 3431 0 
L 469 0 
L 469 531 
Q 828 903 1448 1529 
Q 2069 2156 2228 2338 
Q 2531 2678 2651 2914 
Q 2772 3150 2772 3378 
Q 2772 3750 2511 3984 
Q 2250 4219 1831 4219 
Q 1534 4219 1204 4116 
Q 875 4013 500 3803 
L 500 4441 
Q 881 4594 1212 4672 
Q 1544 4750 1819 4750 
Q 2544 4750 2975 4387 
Q 3406 4025 3406 3419 
Q 3406 3131 3298 2873 
Q 3191 2616 2906 2266 
Q 2828 2175 2409 1742 
Q 1991 1309 1228 531 
z
" transform="scale(0.015625)"/>
       </defs>
       <use xlink:href="#DejaVuSans-30"/>
       <use xlink:href="#DejaVuSans-2e" transform="translate(63.623047 0)"/>
       <use xlink:href="#DejaVuSans-32" transform="translate(95.410156 0)"/>
      </g>
     </g>
    </g>
    <g id="ytick_3">
     <g id="line2d_8">
      <g>
       <use xlink:href="#m93d3328e62" x="154.96" y="746.837819" style="stroke: #000000; stroke-width: 0.8"/>
      </g>
     </g>
     <g id="text_3">
      <!-- 0.4 -->
      <g transform="translate(84.3475 762.034694) scale(0.4 -0.4)">
       <defs>
        <path id="DejaVuSans-34" d="M 2419 4116 
L 825 1625 
L 2419 1625 
L 2419 4116 
z
M 2253 4666 
L 3047 4666 
L 3047 1625 
L 3713 1625 
L 3713 1100 
L 3047 1100 
L 3047 0 
L 2419 0 
L 2419 1100 
L 313 1100 
L 313 1709 
L 2253 4666 
z
" transform="scale(0.015625)"/>
       </defs>
       <use xlink:href="#DejaVuSans-30"/>
       <use xlink:href="#DejaVuSans-2e" transform="translate(63.623047 0)"/>
       <use xlink:href="#DejaVuSans-34" transform="translate(95.410156 0)"/>
      </g>
     </g>
    </g>
    <g id="ytick_4">
     <g id="line2d_9">
      <g>
       <use xlink:href="#m93d3328e62" x="154.96" y="621.68518" style="stroke: #000000; stroke-width: 0.8"/>
      </g>
     </g>
     <g id="text_4">
      <!-- 0.6 -->
      <g transform="translate(84.3475 636.882055) scale(0.4 -0.4)">
       <defs>
        <path id="DejaVuSans-36" d="M 2113 2584 
Q 1688 2584 1439 2293 
Q 1191 2003 1191 1497 
Q 1191 994 1439 701 
Q 1688 409 2113 409 
Q 2538 409 2786 701 
Q 3034 994 3034 1497 
Q 3034 2003 2786 2293 
Q 2538 2584 2113 2584 
z
M 3366 4563 
L 3366 3988 
Q 3128 4100 2886 4159 
Q 2644 4219 2406 4219 
Q 1781 4219 1451 3797 
Q 1122 3375 1075 2522 
Q 1259 2794 1537 2939 
Q 1816 3084 2150 3084 
Q 2853 3084 3261 2657 
Q 3669 2231 3669 1497 
Q 3669 778 3244 343 
Q 2819 -91 2113 -91 
Q 1303 -91 875 529 
Q 447 1150 447 2328 
Q 447 3434 972 4092 
Q 1497 4750 2381 4750 
Q 2619 4750 2861 4703 
Q 3103 4656 3366 4563 
z
" transform="scale(0.015625)"/>
       </defs>
       <use xlink:href="#DejaVuSans-30"/>
       <use xlink:href="#DejaVuSans-2e" transform="translate(63.623047 0)"/>
       <use xlink:href="#DejaVuSans-36" transform="translate(95.410156 0)"/>
      </g>
     </g>
    </g>
    <g id="ytick_5">
     <g id="line2d_10">
      <g>
       <use xlink:href="#m93d3328e62" x="154.96" y="496.532541" style="stroke: #000000; stroke-width: 0.8"/>
      </g>
     </g>
     <g id="text_5">
      <!-- 0.8 -->
      <g transform="translate(84.3475 511.729416) scale(0.4 -0.4)">
       <defs>
        <path id="DejaVuSans-38" d="M 2034 2216 
Q 1584 2216 1326 1975 
Q 1069 1734 1069 1313 
Q 1069 891 1326 650 
Q 1584 409 2034 409 
Q 2484 409 2743 651 
Q 3003 894 3003 1313 
Q 3003 1734 2745 1975 
Q 2488 2216 2034 2216 
z
M 1403 2484 
Q 997 2584 770 2862 
Q 544 3141 544 3541 
Q 544 4100 942 4425 
Q 1341 4750 2034 4750 
Q 2731 4750 3128 4425 
Q 3525 4100 3525 3541 
Q 3525 3141 3298 2862 
Q 3072 2584 2669 2484 
Q 3125 2378 3379 2068 
Q 3634 1759 3634 1313 
Q 3634 634 3220 271 
Q 2806 -91 2034 -91 
Q 1263 -91 848 271 
Q 434 634 434 1313 
Q 434 1759 690 2068 
Q 947 2378 1403 2484 
z
M 1172 3481 
Q 1172 3119 1398 2916 
Q 1625 2713 2034 2713 
Q 2441 2713 2670 2916 
Q 2900 3119 2900 3481 
Q 2900 3844 2670 4047 
Q 2441 4250 2034 4250 
Q 1625 4250 1398 4047 
Q 1172 3844 1172 3481 
z
" transform="scale(0.015625)"/>
       </defs>
       <use xlink:href="#DejaVuSans-30"/>
       <use xlink:href="#DejaVuSans-2e" transform="translate(63.623047 0)"/>
       <use xlink:href="#DejaVuSans-38" transform="translate(95.410156 0)"/>
      </g>
     </g>
    </g>
    <g id="ytick_6">
     <g id="line2d_11">
      <g>
       <use xlink:href="#m93d3328e62" x="154.96" y="371.379902" style="stroke: #000000; stroke-width: 0.8"/>
      </g>
     </g>
     <g id="text_6">
      <!-- 1.0 -->
      <g transform="translate(84.3475 386.576777) scale(0.4 -0.4)">
       <defs>
        <path id="DejaVuSans-31" d="M 794 531 
L 1825 531 
L 1825 4091 
L 703 3866 
L 703 4441 
L 1819 4666 
L 2450 4666 
L 2450 531 
L 3481 531 
L 3481 0 
L 794 0 
L 794 531 
z
" transform="scale(0.015625)"/>
       </defs>
       <use xlink:href="#DejaVuSans-31"/>
       <use xlink:href="#DejaVuSans-2e" transform="translate(63.623047 0)"/>
       <use xlink:href="#DejaVuSans-30" transform="translate(95.410156 0)"/>
      </g>
     </g>
    </g>
    <g id="ytick_7">
     <g id="line2d_12">
      <g>
       <use xlink:href="#m93d3328e62" x="154.96" y="246.227263" style="stroke: #000000; stroke-width: 0.8"/>
      </g>
     </g>
     <g id="text_7">
      <!-- 1.2 -->
      <g transform="translate(84.3475 261.424138) scale(0.4 -0.4)">
       <use xlink:href="#DejaVuSans-31"/>
       <use xlink:href="#DejaVuSans-2e" transform="translate(63.623047 0)"/>
       <use xlink:href="#DejaVuSans-32" transform="translate(95.410156 0)"/>
      </g>
     </g>
    </g>
    <g id="ytick_8">
     <g id="line2d_13">
      <g>
       <use xlink:href="#m93d3328e62" x="154.96" y="121.074624" style="stroke: #000000; stroke-width: 0.8"/>
      </g>
     </g>
     <g id="text_8">
      <!-- 1.4 -->
      <g transform="translate(84.3475 136.271499) scale(0.4 -0.4)">
       <use xlink:href="#DejaVuSans-31"/>
       <use xlink:href="#DejaVuSans-2e" transform="translate(63.623047 0)"/>
       <use xlink:href="#DejaVuSans-34" transform="translate(95.410156 0)"/>
      </g>
     </g>
    </g>
   </g>
   <g id="patch_13">
    <path d="M 154.96 997.143097 
L 154.96 15.102292 
" style="fill: none; stroke: #000000; stroke-width: 0.8; stroke-linejoin: miter; stroke-linecap: square"/>
   </g>
   <g id="patch_14">
    <path d="M 1501.47 997.143097 
L 1501.47 15.102292 
" style="fill: none; stroke: #000000; stroke-width: 0.8; stroke-linejoin: miter; stroke-linecap: square"/>
   </g>
   <g id="patch_15">
    <path d="M 154.96 997.143097 
L 1501.47 997.143097 
" style="fill: none; stroke: #000000; stroke-width: 0.8; stroke-linejoin: miter; stroke-linecap: square"/>
   </g>
   <g id="patch_16">
    <path d="M 154.96 15.102292 
L 1501.47 15.102292 
" style="fill: none; stroke: #000000; stroke-width: 0.8; stroke-linejoin: miter; stroke-linecap: square"/>
   </g>
   <g id="text_9">
    <!-- BERT-Tiny -->
    <g transform="translate(731.968125 1036.424729) scale(0.4 -0.4)">
     <defs>
      <path id="DejaVuSans-42" d="M 1259 2228 
L 1259 519 
L 2272 519 
Q 2781 519 3026 730 
Q 3272 941 3272 1375 
Q 3272 1813 3026 2020 
Q 2781 2228 2272 2228 
L 1259 2228 
z
M 1259 4147 
L 1259 2741 
L 2194 2741 
Q 2656 2741 2882 2914 
Q 3109 3088 3109 3444 
Q 3109 3797 2882 3972 
Q 2656 4147 2194 4147 
L 1259 4147 
z
M 628 4666 
L 2241 4666 
Q 2963 4666 3353 4366 
Q 3744 4066 3744 3513 
Q 3744 3084 3544 2831 
Q 3344 2578 2956 2516 
Q 3422 2416 3680 2098 
Q 3938 1781 3938 1306 
Q 3938 681 3513 340 
Q 3088 0 2303 0 
L 628 0 
L 628 4666 
z
" transform="scale(0.015625)"/>
      <path id="DejaVuSans-45" d="M 628 4666 
L 3578 4666 
L 3578 4134 
L 1259 4134 
L 1259 2753 
L 3481 2753 
L 3481 2222 
L 1259 2222 
L 1259 531 
L 3634 531 
L 3634 0 
L 628 0 
L 628 4666 
z
" transform="scale(0.015625)"/>
      <path id="DejaVuSans-52" d="M 2841 2188 
Q 3044 2119 3236 1894 
Q 3428 1669 3622 1275 
L 4263 0 
L 3584 0 
L 2988 1197 
Q 2756 1666 2539 1819 
Q 2322 1972 1947 1972 
L 1259 1972 
L 1259 0 
L 628 0 
L 628 4666 
L 2053 4666 
Q 2853 4666 3247 4331 
Q 3641 3997 3641 3322 
Q 3641 2881 3436 2590 
Q 3231 2300 2841 2188 
z
M 1259 4147 
L 1259 2491 
L 2053 2491 
Q 2509 2491 2742 2702 
Q 2975 2913 2975 3322 
Q 2975 3731 2742 3939 
Q 2509 4147 2053 4147 
L 1259 4147 
z
" transform="scale(0.015625)"/>
      <path id="DejaVuSans-54" d="M -19 4666 
L 3928 4666 
L 3928 4134 
L 2272 4134 
L 2272 0 
L 1638 0 
L 1638 4134 
L -19 4134 
L -19 4666 
z
" transform="scale(0.015625)"/>
      <path id="DejaVuSans-2d" d="M 313 2009 
L 1997 2009 
L 1997 1497 
L 313 1497 
L 313 2009 
z
" transform="scale(0.015625)"/>
      <path id="DejaVuSans-69" d="M 603 3500 
L 1178 3500 
L 1178 0 
L 603 0 
L 603 3500 
z
M 603 4863 
L 1178 4863 
L 1178 4134 
L 603 4134 
L 603 4863 
z
" transform="scale(0.015625)"/>
      <path id="DejaVuSans-6e" d="M 3513 2113 
L 3513 0 
L 2938 0 
L 2938 2094 
Q 2938 2591 2744 2837 
Q 2550 3084 2163 3084 
Q 1697 3084 1428 2787 
Q 1159 2491 1159 1978 
L 1159 0 
L 581 0 
L 581 3500 
L 1159 3500 
L 1159 2956 
Q 1366 3272 1645 3428 
Q 1925 3584 2291 3584 
Q 2894 3584 3203 3211 
Q 3513 2838 3513 2113 
z
" transform="scale(0.015625)"/>
      <path id="DejaVuSans-79" d="M 2059 -325 
Q 1816 -950 1584 -1140 
Q 1353 -1331 966 -1331 
L 506 -1331 
L 506 -850 
L 844 -850 
Q 1081 -850 1212 -737 
Q 1344 -625 1503 -206 
L 1606 56 
L 191 3500 
L 800 3500 
L 1894 763 
L 2988 3500 
L 3597 3500 
L 2059 -325 
z
" transform="scale(0.015625)"/>
     </defs>
     <use xlink:href="#DejaVuSans-42"/>
     <use xlink:href="#DejaVuSans-45" transform="translate(68.603516 0)"/>
     <use xlink:href="#DejaVuSans-52" transform="translate(131.787109 0)"/>
     <use xlink:href="#DejaVuSans-54" transform="translate(194.019531 0)"/>
     <use xlink:href="#DejaVuSans-2d" transform="translate(245.978516 0)"/>
     <use xlink:href="#DejaVuSans-54" transform="translate(272.9375 0)"/>
     <use xlink:href="#DejaVuSans-69" transform="translate(330.896484 0)"/>
     <use xlink:href="#DejaVuSans-6e" transform="translate(358.679688 0)"/>
     <use xlink:href="#DejaVuSans-79" transform="translate(422.058594 0)"/>
    </g>
   </g>
   <g id="legend_1">
    <g id="patch_17">
     <path d="M 968.548125 127.171042 
L 1480.47 127.171042 
Q 1486.47 127.171042 1486.47 121.171042 
L 1486.47 36.102292 
Q 1486.47 30.102292 1480.47 30.102292 
L 968.548125 30.102292 
Q 962.548125 30.102292 962.548125 36.102292 
L 962.548125 121.171042 
Q 962.548125 127.171042 968.548125 127.171042 
z
" style="fill: #ffffff; opacity: 0.8; stroke: #cccccc; stroke-linejoin: miter"/>
    </g>
    <g id="patch_18">
     <path d="M 974.548125 64.897604 
L 1034.548125 64.897604 
L 1034.548125 43.897604 
L 974.548125 43.897604 
z
" style="fill: #1f77b4"/>
    </g>
    <g id="text_10">
     <!-- Cycle Count -->
     <g transform="translate(1058.548125 64.897604) scale(0.3 -0.3)">
      <defs>
       <path id="DejaVuSans-43" d="M 4122 4306 
L 4122 3641 
Q 3803 3938 3442 4084 
Q 3081 4231 2675 4231 
Q 1875 4231 1450 3742 
Q 1025 3253 1025 2328 
Q 1025 1406 1450 917 
Q 1875 428 2675 428 
Q 3081 428 3442 575 
Q 3803 722 4122 1019 
L 4122 359 
Q 3791 134 3420 21 
Q 3050 -91 2638 -91 
Q 1578 -91 968 557 
Q 359 1206 359 2328 
Q 359 3453 968 4101 
Q 1578 4750 2638 4750 
Q 3056 4750 3426 4639 
Q 3797 4528 4122 4306 
z
" transform="scale(0.015625)"/>
       <path id="DejaVuSans-63" d="M 3122 3366 
L 3122 2828 
Q 2878 2963 2633 3030 
Q 2388 3097 2138 3097 
Q 1578 3097 1268 2742 
Q 959 2388 959 1747 
Q 959 1106 1268 751 
Q 1578 397 2138 397 
Q 2388 397 2633 464 
Q 2878 531 3122 666 
L 3122 134 
Q 2881 22 2623 -34 
Q 2366 -91 2075 -91 
Q 1284 -91 818 406 
Q 353 903 353 1747 
Q 353 2603 823 3093 
Q 1294 3584 2113 3584 
Q 2378 3584 2631 3529 
Q 2884 3475 3122 3366 
z
" transform="scale(0.015625)"/>
       <path id="DejaVuSans-6c" d="M 603 4863 
L 1178 4863 
L 1178 0 
L 603 0 
L 603 4863 
z
" transform="scale(0.015625)"/>
       <path id="DejaVuSans-65" d="M 3597 1894 
L 3597 1613 
L 953 1613 
Q 991 1019 1311 708 
Q 1631 397 2203 397 
Q 2534 397 2845 478 
Q 3156 559 3463 722 
L 3463 178 
Q 3153 47 2828 -22 
Q 2503 -91 2169 -91 
Q 1331 -91 842 396 
Q 353 884 353 1716 
Q 353 2575 817 3079 
Q 1281 3584 2069 3584 
Q 2775 3584 3186 3129 
Q 3597 2675 3597 1894 
z
M 3022 2063 
Q 3016 2534 2758 2815 
Q 2500 3097 2075 3097 
Q 1594 3097 1305 2825 
Q 1016 2553 972 2059 
L 3022 2063 
z
" transform="scale(0.015625)"/>
       <path id="DejaVuSans-20" transform="scale(0.015625)"/>
       <path id="DejaVuSans-6f" d="M 1959 3097 
Q 1497 3097 1228 2736 
Q 959 2375 959 1747 
Q 959 1119 1226 758 
Q 1494 397 1959 397 
Q 2419 397 2687 759 
Q 2956 1122 2956 1747 
Q 2956 2369 2687 2733 
Q 2419 3097 1959 3097 
z
M 1959 3584 
Q 2709 3584 3137 3096 
Q 3566 2609 3566 1747 
Q 3566 888 3137 398 
Q 2709 -91 1959 -91 
Q 1206 -91 779 398 
Q 353 888 353 1747 
Q 353 2609 779 3096 
Q 1206 3584 1959 3584 
z
" transform="scale(0.015625)"/>
       <path id="DejaVuSans-75" d="M 544 1381 
L 544 3500 
L 1119 3500 
L 1119 1403 
Q 1119 906 1312 657 
Q 1506 409 1894 409 
Q 2359 409 2629 706 
Q 2900 1003 2900 1516 
L 2900 3500 
L 3475 3500 
L 3475 0 
L 2900 0 
L 2900 538 
Q 2691 219 2414 64 
Q 2138 -91 1772 -91 
Q 1169 -91 856 284 
Q 544 659 544 1381 
z
M 1991 3584 
L 1991 3584 
z
" transform="scale(0.015625)"/>
       <path id="DejaVuSans-74" d="M 1172 4494 
L 1172 3500 
L 2356 3500 
L 2356 3053 
L 1172 3053 
L 1172 1153 
Q 1172 725 1289 603 
Q 1406 481 1766 481 
L 2356 481 
L 2356 0 
L 1766 0 
Q 1100 0 847 248 
Q 594 497 594 1153 
L 594 3053 
L 172 3053 
L 172 3500 
L 594 3500 
L 594 4494 
L 1172 4494 
z
" transform="scale(0.015625)"/>
      </defs>
      <use xlink:href="#DejaVuSans-43"/>
      <use xlink:href="#DejaVuSans-79" transform="translate(69.824219 0)"/>
      <use xlink:href="#DejaVuSans-63" transform="translate(129.003906 0)"/>
      <use xlink:href="#DejaVuSans-6c" transform="translate(183.984375 0)"/>
      <use xlink:href="#DejaVuSans-65" transform="translate(211.767578 0)"/>
      <use xlink:href="#DejaVuSans-20" transform="translate(273.291016 0)"/>
      <use xlink:href="#DejaVuSans-43" transform="translate(305.078125 0)"/>
      <use xlink:href="#DejaVuSans-6f" transform="translate(374.902344 0)"/>
      <use xlink:href="#DejaVuSans-75" transform="translate(436.083984 0)"/>
      <use xlink:href="#DejaVuSans-6e" transform="translate(499.462891 0)"/>
      <use xlink:href="#DejaVuSans-74" transform="translate(562.841797 0)"/>
     </g>
    </g>
    <g id="patch_19">
     <path d="M 974.548125 108.931979 
L 1034.548125 108.931979 
L 1034.548125 87.931979 
L 974.548125 87.931979 
z
" style="fill: #ff7f0e"/>
    </g>
    <g id="text_11">
     <!-- Instruction Execution Count -->
     <g transform="translate(1058.548125 108.931979) scale(0.3 -0.3)">
      <defs>
       <path id="DejaVuSans-49" d="M 628 4666 
L 1259 4666 
L 1259 0 
L 628 0 
L 628 4666 
z
" transform="scale(0.015625)"/>
       <path id="DejaVuSans-73" d="M 2834 3397 
L 2834 2853 
Q 2591 2978 2328 3040 
Q 2066 3103 1784 3103 
Q 1356 3103 1142 2972 
Q 928 2841 928 2578 
Q 928 2378 1081 2264 
Q 1234 2150 1697 2047 
L 1894 2003 
Q 2506 1872 2764 1633 
Q 3022 1394 3022 966 
Q 3022 478 2636 193 
Q 2250 -91 1575 -91 
Q 1294 -91 989 -36 
Q 684 19 347 128 
L 347 722 
Q 666 556 975 473 
Q 1284 391 1588 391 
Q 1994 391 2212 530 
Q 2431 669 2431 922 
Q 2431 1156 2273 1281 
Q 2116 1406 1581 1522 
L 1381 1569 
Q 847 1681 609 1914 
Q 372 2147 372 2553 
Q 372 3047 722 3315 
Q 1072 3584 1716 3584 
Q 2034 3584 2315 3537 
Q 2597 3491 2834 3397 
z
" transform="scale(0.015625)"/>
       <path id="DejaVuSans-72" d="M 2631 2963 
Q 2534 3019 2420 3045 
Q 2306 3072 2169 3072 
Q 1681 3072 1420 2755 
Q 1159 2438 1159 1844 
L 1159 0 
L 581 0 
L 581 3500 
L 1159 3500 
L 1159 2956 
Q 1341 3275 1631 3429 
Q 1922 3584 2338 3584 
Q 2397 3584 2469 3576 
Q 2541 3569 2628 3553 
L 2631 2963 
z
" transform="scale(0.015625)"/>
       <path id="DejaVuSans-78" d="M 3513 3500 
L 2247 1797 
L 3578 0 
L 2900 0 
L 1881 1375 
L 863 0 
L 184 0 
L 1544 1831 
L 300 3500 
L 978 3500 
L 1906 2253 
L 2834 3500 
L 3513 3500 
z
" transform="scale(0.015625)"/>
      </defs>
      <use xlink:href="#DejaVuSans-49"/>
      <use xlink:href="#DejaVuSans-6e" transform="translate(29.492188 0)"/>
      <use xlink:href="#DejaVuSans-73" transform="translate(92.871094 0)"/>
      <use xlink:href="#DejaVuSans-74" transform="translate(144.970703 0)"/>
      <use xlink:href="#DejaVuSans-72" transform="translate(184.179688 0)"/>
      <use xlink:href="#DejaVuSans-75" transform="translate(225.292969 0)"/>
      <use xlink:href="#DejaVuSans-63" transform="translate(288.671875 0)"/>
      <use xlink:href="#DejaVuSans-74" transform="translate(343.652344 0)"/>
      <use xlink:href="#DejaVuSans-69" transform="translate(382.861328 0)"/>
      <use xlink:href="#DejaVuSans-6f" transform="translate(410.644531 0)"/>
      <use xlink:href="#DejaVuSans-6e" transform="translate(471.826172 0)"/>
      <use xlink:href="#DejaVuSans-20" transform="translate(535.205078 0)"/>
      <use xlink:href="#DejaVuSans-45" transform="translate(566.992188 0)"/>
      <use xlink:href="#DejaVuSans-78" transform="translate(630.175781 0)"/>
      <use xlink:href="#DejaVuSans-65" transform="translate(686.230469 0)"/>
      <use xlink:href="#DejaVuSans-63" transform="translate(747.753906 0)"/>
      <use xlink:href="#DejaVuSans-75" transform="translate(802.734375 0)"/>
      <use xlink:href="#DejaVuSans-74" transform="translate(866.113281 0)"/>
      <use xlink:href="#DejaVuSans-69" transform="translate(905.322266 0)"/>
      <use xlink:href="#DejaVuSans-6f" transform="translate(933.105469 0)"/>
      <use xlink:href="#DejaVuSans-6e" transform="translate(994.287109 0)"/>
      <use xlink:href="#DejaVuSans-20" transform="translate(1057.666016 0)"/>
      <use xlink:href="#DejaVuSans-43" transform="translate(1089.453125 0)"/>
      <use xlink:href="#DejaVuSans-6f" transform="translate(1159.277344 0)"/>
      <use xlink:href="#DejaVuSans-75" transform="translate(1220.458984 0)"/>
      <use xlink:href="#DejaVuSans-6e" transform="translate(1283.837891 0)"/>
      <use xlink:href="#DejaVuSans-74" transform="translate(1347.216797 0)"/>
     </g>
    </g>
   </g>
  </g>
  <g id="axes_2">
   <g id="patch_20">
    <path d="M 1578.85 997.143097 
L 2925.36 997.143097 
L 2925.36 15.102292 
L 1578.85 15.102292 
z
" style="fill: #ffffff"/>
   </g>
   <g id="patch_21">
    <path d="M 1640.055 997.143097 
L 1731.211383 997.143097 
L 1731.211383 61.86614 
L 1640.055 61.86614 
z
" clip-path="url(#pc189bae560)" style="fill: #1f77b4"/>
   </g>
   <g id="patch_22">
    <path d="M 1900.501809 997.143097 
L 1991.658191 997.143097 
L 1991.658191 62.747389 
L 1900.501809 62.747389 
z
" clip-path="url(#pc189bae560)" style="fill: #1f77b4"/>
   </g>
   <g id="patch_23">
    <path d="M 2160.948617 997.143097 
L 2252.105 997.143097 
L 2252.105 65.193919 
L 2160.948617 65.193919 
z
" clip-path="url(#pc189bae560)" style="fill: #1f77b4"/>
   </g>
   <g id="patch_24">
    <path d="M 2421.395426 997.143097 
L 2512.551809 997.143097 
L 2512.551809 139.209888 
L 2421.395426 139.209888 
z
" clip-path="url(#pc189bae560)" style="fill: #1f77b4"/>
   </g>
   <g id="patch_25">
    <path d="M 2681.842234 997.143097 
L 2772.998617 997.143097 
L 2772.998617 335.693805 
L 2681.842234 335.693805 
z
" clip-path="url(#pc189bae560)" style="fill: #1f77b4"/>
   </g>
   <g id="patch_26">
    <path d="M 1731.211383 997.143097 
L 1822.367766 997.143097 
L 1822.367766 195.89844 
L 1731.211383 195.89844 
z
" clip-path="url(#pc189bae560)" style="fill: #ff7f0e"/>
   </g>
   <g id="patch_27">
    <path d="M 1991.658191 997.143097 
L 2082.814574 997.143097 
L 2082.814574 196.779689 
L 1991.658191 196.779689 
z
" clip-path="url(#pc189bae560)" style="fill: #ff7f0e"/>
   </g>
   <g id="patch_28">
    <path d="M 2252.105 997.143097 
L 2343.261383 997.143097 
L 2343.261383 199.22622 
L 2252.105 199.22622 
z
" clip-path="url(#pc189bae560)" style="fill: #ff7f0e"/>
   </g>
   <g id="patch_29">
    <path d="M 2512.551809 997.143097 
L 2603.708191 997.143097 
L 2603.708191 273.242188 
L 2512.551809 273.242188 
z
" clip-path="url(#pc189bae560)" style="fill: #ff7f0e"/>
   </g>
   <g id="patch_30">
    <path d="M 2772.998617 997.143097 
L 2864.155 997.143097 
L 2864.155 413.551193 
L 2772.998617 413.551193 
z
" clip-path="url(#pc189bae560)" style="fill: #ff7f0e"/>
   </g>
   <g id="matplotlib.axis_3">
    <g id="xtick_6">
     <g id="line2d_14">
      <g>
       <use xlink:href="#m82e9089370" x="1731.211383" y="997.143097" style="stroke: #000000; stroke-width: 0.8"/>
      </g>
     </g>
    </g>
    <g id="xtick_7">
     <g id="line2d_15">
      <g>
       <use xlink:href="#m82e9089370" x="1991.658191" y="997.143097" style="stroke: #000000; stroke-width: 0.8"/>
      </g>
     </g>
    </g>
    <g id="xtick_8">
     <g id="line2d_16">
      <g>
       <use xlink:href="#m82e9089370" x="2252.105" y="997.143097" style="stroke: #000000; stroke-width: 0.8"/>
      </g>
     </g>
    </g>
    <g id="xtick_9">
     <g id="line2d_17">
      <g>
       <use xlink:href="#m82e9089370" x="2512.551809" y="997.143097" style="stroke: #000000; stroke-width: 0.8"/>
      </g>
     </g>
    </g>
    <g id="xtick_10">
     <g id="line2d_18">
      <g>
       <use xlink:href="#m82e9089370" x="2772.998617" y="997.143097" style="stroke: #000000; stroke-width: 0.8"/>
      </g>
     </g>
    </g>
   </g>
   <g id="matplotlib.axis_4">
    <g id="ytick_9">
     <g id="line2d_19">
      <g>
       <use xlink:href="#m93d3328e62" x="1578.85" y="997.143097" style="stroke: #000000; stroke-width: 0.8"/>
      </g>
     </g>
     <g id="text_12">
      <!-- 0 -->
      <g transform="translate(1546.4 1012.339972) scale(0.4 -0.4)">
       <use xlink:href="#DejaVuSans-30"/>
      </g>
     </g>
    </g>
    <g id="ytick_10">
     <g id="line2d_20">
      <g>
       <use xlink:href="#m93d3328e62" x="1578.85" y="857.893637" style="stroke: #000000; stroke-width: 0.8"/>
      </g>
     </g>
     <g id="text_13">
      <!-- 10 -->
      <g transform="translate(1520.95 873.090512) scale(0.4 -0.4)">
       <use xlink:href="#DejaVuSans-31"/>
       <use xlink:href="#DejaVuSans-30" transform="translate(63.623047 0)"/>
      </g>
     </g>
    </g>
    <g id="ytick_11">
     <g id="line2d_21">
      <g>
       <use xlink:href="#m93d3328e62" x="1578.85" y="718.644176" style="stroke: #000000; stroke-width: 0.8"/>
      </g>
     </g>
     <g id="text_14">
      <!-- 20 -->
      <g transform="translate(1520.95 733.841051) scale(0.4 -0.4)">
       <use xlink:href="#DejaVuSans-32"/>
       <use xlink:href="#DejaVuSans-30" transform="translate(63.623047 0)"/>
      </g>
     </g>
    </g>
    <g id="ytick_12">
     <g id="line2d_22">
      <g>
       <use xlink:href="#m93d3328e62" x="1578.85" y="579.394716" style="stroke: #000000; stroke-width: 0.8"/>
      </g>
     </g>
     <g id="text_15">
      <!-- 30 -->
      <g transform="translate(1520.95 594.591591) scale(0.4 -0.4)">
       <defs>
        <path id="DejaVuSans-33" d="M 2597 2516 
Q 3050 2419 3304 2112 
Q 3559 1806 3559 1356 
Q 3559 666 3084 287 
Q 2609 -91 1734 -91 
Q 1441 -91 1130 -33 
Q 819 25 488 141 
L 488 750 
Q 750 597 1062 519 
Q 1375 441 1716 441 
Q 2309 441 2620 675 
Q 2931 909 2931 1356 
Q 2931 1769 2642 2001 
Q 2353 2234 1838 2234 
L 1294 2234 
L 1294 2753 
L 1863 2753 
Q 2328 2753 2575 2939 
Q 2822 3125 2822 3475 
Q 2822 3834 2567 4026 
Q 2313 4219 1838 4219 
Q 1578 4219 1281 4162 
Q 984 4106 628 3988 
L 628 4550 
Q 988 4650 1302 4700 
Q 1616 4750 1894 4750 
Q 2613 4750 3031 4423 
Q 3450 4097 3450 3541 
Q 3450 3153 3228 2886 
Q 3006 2619 2597 2516 
z
" transform="scale(0.015625)"/>
       </defs>
       <use xlink:href="#DejaVuSans-33"/>
       <use xlink:href="#DejaVuSans-30" transform="translate(63.623047 0)"/>
      </g>
     </g>
    </g>
    <g id="ytick_13">
     <g id="line2d_23">
      <g>
       <use xlink:href="#m93d3328e62" x="1578.85" y="440.145256" style="stroke: #000000; stroke-width: 0.8"/>
      </g>
     </g>
     <g id="text_16">
      <!-- 40 -->
      <g transform="translate(1520.95 455.342131) scale(0.4 -0.4)">
       <use xlink:href="#DejaVuSans-34"/>
       <use xlink:href="#DejaVuSans-30" transform="translate(63.623047 0)"/>
      </g>
     </g>
    </g>
    <g id="ytick_14">
     <g id="line2d_24">
      <g>
       <use xlink:href="#m93d3328e62" x="1578.85" y="300.895796" style="stroke: #000000; stroke-width: 0.8"/>
      </g>
     </g>
     <g id="text_17">
      <!-- 50 -->
      <g transform="translate(1520.95 316.092671) scale(0.4 -0.4)">
       <defs>
        <path id="DejaVuSans-35" d="M 691 4666 
L 3169 4666 
L 3169 4134 
L 1269 4134 
L 1269 2991 
Q 1406 3038 1543 3061 
Q 1681 3084 1819 3084 
Q 2600 3084 3056 2656 
Q 3513 2228 3513 1497 
Q 3513 744 3044 326 
Q 2575 -91 1722 -91 
Q 1428 -91 1123 -41 
Q 819 9 494 109 
L 494 744 
Q 775 591 1075 516 
Q 1375 441 1709 441 
Q 2250 441 2565 725 
Q 2881 1009 2881 1497 
Q 2881 1984 2565 2268 
Q 2250 2553 1709 2553 
Q 1456 2553 1204 2497 
Q 953 2441 691 2322 
L 691 4666 
z
" transform="scale(0.015625)"/>
       </defs>
       <use xlink:href="#DejaVuSans-35"/>
       <use xlink:href="#DejaVuSans-30" transform="translate(63.623047 0)"/>
      </g>
     </g>
    </g>
    <g id="ytick_15">
     <g id="line2d_25">
      <g>
       <use xlink:href="#m93d3328e62" x="1578.85" y="161.646335" style="stroke: #000000; stroke-width: 0.8"/>
      </g>
     </g>
     <g id="text_18">
      <!-- 60 -->
      <g transform="translate(1520.95 176.84321) scale(0.4 -0.4)">
       <use xlink:href="#DejaVuSans-36"/>
       <use xlink:href="#DejaVuSans-30" transform="translate(63.623047 0)"/>
      </g>
     </g>
    </g>
    <g id="ytick_16">
     <g id="line2d_26">
      <g>
       <use xlink:href="#m93d3328e62" x="1578.85" y="22.396875" style="stroke: #000000; stroke-width: 0.8"/>
      </g>
     </g>
     <g id="text_19">
      <!-- 70 -->
      <g transform="translate(1520.95 37.59375) scale(0.4 -0.4)">
       <defs>
        <path id="DejaVuSans-37" d="M 525 4666 
L 3525 4666 
L 3525 4397 
L 1831 0 
L 1172 0 
L 2766 4134 
L 525 4134 
L 525 4666 
z
" transform="scale(0.015625)"/>
       </defs>
       <use xlink:href="#DejaVuSans-37"/>
       <use xlink:href="#DejaVuSans-30" transform="translate(63.623047 0)"/>
      </g>
     </g>
    </g>
   </g>
   <g id="patch_31">
    <path d="M 1578.85 997.143097 
L 1578.85 15.102292 
" style="fill: none; stroke: #000000; stroke-width: 0.8; stroke-linejoin: miter; stroke-linecap: square"/>
   </g>
   <g id="patch_32">
    <path d="M 2925.36 997.143097 
L 2925.36 15.102292 
" style="fill: none; stroke: #000000; stroke-width: 0.8; stroke-linejoin: miter; stroke-linecap: square"/>
   </g>
   <g id="patch_33">
    <path d="M 1578.85 997.143097 
L 2925.36 997.143097 
" style="fill: none; stroke: #000000; stroke-width: 0.8; stroke-linejoin: miter; stroke-linecap: square"/>
   </g>
   <g id="patch_34">
    <path d="M 1578.85 15.102292 
L 2925.36 15.102292 
" style="fill: none; stroke: #000000; stroke-width: 0.8; stroke-linejoin: miter; stroke-linecap: square"/>
   </g>
   <g id="text_20">
    <!-- MobileBERT -->
    <g transform="translate(2135.47375 1036.424729) scale(0.4 -0.4)">
     <defs>
      <path id="DejaVuSans-4d" d="M 628 4666 
L 1569 4666 
L 2759 1491 
L 3956 4666 
L 4897 4666 
L 4897 0 
L 4281 0 
L 4281 4097 
L 3078 897 
L 2444 897 
L 1241 4097 
L 1241 0 
L 628 0 
L 628 4666 
z
" transform="scale(0.015625)"/>
      <path id="DejaVuSans-62" d="M 3116 1747 
Q 3116 2381 2855 2742 
Q 2594 3103 2138 3103 
Q 1681 3103 1420 2742 
Q 1159 2381 1159 1747 
Q 1159 1113 1420 752 
Q 1681 391 2138 391 
Q 2594 391 2855 752 
Q 3116 1113 3116 1747 
z
M 1159 2969 
Q 1341 3281 1617 3432 
Q 1894 3584 2278 3584 
Q 2916 3584 3314 3078 
Q 3713 2572 3713 1747 
Q 3713 922 3314 415 
Q 2916 -91 2278 -91 
Q 1894 -91 1617 61 
Q 1341 213 1159 525 
L 1159 0 
L 581 0 
L 581 4863 
L 1159 4863 
L 1159 2969 
z
" transform="scale(0.015625)"/>
     </defs>
     <use xlink:href="#DejaVuSans-4d"/>
     <use xlink:href="#DejaVuSans-6f" transform="translate(86.279297 0)"/>
     <use xlink:href="#DejaVuSans-62" transform="translate(147.460938 0)"/>
     <use xlink:href="#DejaVuSans-69" transform="translate(210.9375 0)"/>
     <use xlink:href="#DejaVuSans-6c" transform="translate(238.720703 0)"/>
     <use xlink:href="#DejaVuSans-65" transform="translate(266.503906 0)"/>
     <use xlink:href="#DejaVuSans-42" transform="translate(328.027344 0)"/>
     <use xlink:href="#DejaVuSans-45" transform="translate(396.630859 0)"/>
     <use xlink:href="#DejaVuSans-52" transform="translate(459.814453 0)"/>
     <use xlink:href="#DejaVuSans-54" transform="translate(522.046875 0)"/>
    </g>
   </g>
   <g id="legend_2">
    <g id="patch_35">
     <path d="M 2392.438125 127.171042 
L 2904.36 127.171042 
Q 2910.36 127.171042 2910.36 121.171042 
L 2910.36 36.102292 
Q 2910.36 30.102292 2904.36 30.102292 
L 2392.438125 30.102292 
Q 2386.438125 30.102292 2386.438125 36.102292 
L 2386.438125 121.171042 
Q 2386.438125 127.171042 2392.438125 127.171042 
z
" style="fill: #ffffff; opacity: 0.8; stroke: #cccccc; stroke-linejoin: miter"/>
    </g>
    <g id="patch_36">
     <path d="M 2398.438125 64.897604 
L 2458.438125 64.897604 
L 2458.438125 43.897604 
L 2398.438125 43.897604 
z
" style="fill: #1f77b4"/>
    </g>
    <g id="text_21">
     <!-- Cycle Count -->
     <g transform="translate(2482.438125 64.897604) scale(0.3 -0.3)">
      <use xlink:href="#DejaVuSans-43"/>
      <use xlink:href="#DejaVuSans-79" transform="translate(69.824219 0)"/>
      <use xlink:href="#DejaVuSans-63" transform="translate(129.003906 0)"/>
      <use xlink:href="#DejaVuSans-6c" transform="translate(183.984375 0)"/>
      <use xlink:href="#DejaVuSans-65" transform="translate(211.767578 0)"/>
      <use xlink:href="#DejaVuSans-20" transform="translate(273.291016 0)"/>
      <use xlink:href="#DejaVuSans-43" transform="translate(305.078125 0)"/>
      <use xlink:href="#DejaVuSans-6f" transform="translate(374.902344 0)"/>
      <use xlink:href="#DejaVuSans-75" transform="translate(436.083984 0)"/>
      <use xlink:href="#DejaVuSans-6e" transform="translate(499.462891 0)"/>
      <use xlink:href="#DejaVuSans-74" transform="translate(562.841797 0)"/>
     </g>
    </g>
    <g id="patch_37">
     <path d="M 2398.438125 108.931979 
L 2458.438125 108.931979 
L 2458.438125 87.931979 
L 2398.438125 87.931979 
z
" style="fill: #ff7f0e"/>
    </g>
    <g id="text_22">
     <!-- Instruction Execution Count -->
     <g transform="translate(2482.438125 108.931979) scale(0.3 -0.3)">
      <use xlink:href="#DejaVuSans-49"/>
      <use xlink:href="#DejaVuSans-6e" transform="translate(29.492188 0)"/>
      <use xlink:href="#DejaVuSans-73" transform="translate(92.871094 0)"/>
      <use xlink:href="#DejaVuSans-74" transform="translate(144.970703 0)"/>
      <use xlink:href="#DejaVuSans-72" transform="translate(184.179688 0)"/>
      <use xlink:href="#DejaVuSans-75" transform="translate(225.292969 0)"/>
      <use xlink:href="#DejaVuSans-63" transform="translate(288.671875 0)"/>
      <use xlink:href="#DejaVuSans-74" transform="translate(343.652344 0)"/>
      <use xlink:href="#DejaVuSans-69" transform="translate(382.861328 0)"/>
      <use xlink:href="#DejaVuSans-6f" transform="translate(410.644531 0)"/>
      <use xlink:href="#DejaVuSans-6e" transform="translate(471.826172 0)"/>
      <use xlink:href="#DejaVuSans-20" transform="translate(535.205078 0)"/>
      <use xlink:href="#DejaVuSans-45" transform="translate(566.992188 0)"/>
      <use xlink:href="#DejaVuSans-78" transform="translate(630.175781 0)"/>
      <use xlink:href="#DejaVuSans-65" transform="translate(686.230469 0)"/>
      <use xlink:href="#DejaVuSans-63" transform="translate(747.753906 0)"/>
      <use xlink:href="#DejaVuSans-75" transform="translate(802.734375 0)"/>
      <use xlink:href="#DejaVuSans-74" transform="translate(866.113281 0)"/>
      <use xlink:href="#DejaVuSans-69" transform="translate(905.322266 0)"/>
      <use xlink:href="#DejaVuSans-6f" transform="translate(933.105469 0)"/>
      <use xlink:href="#DejaVuSans-6e" transform="translate(994.287109 0)"/>
      <use xlink:href="#DejaVuSans-20" transform="translate(1057.666016 0)"/>
      <use xlink:href="#DejaVuSans-43" transform="translate(1089.453125 0)"/>
      <use xlink:href="#DejaVuSans-6f" transform="translate(1159.277344 0)"/>
      <use xlink:href="#DejaVuSans-75" transform="translate(1220.458984 0)"/>
      <use xlink:href="#DejaVuSans-6e" transform="translate(1283.837891 0)"/>
      <use xlink:href="#DejaVuSans-74" transform="translate(1347.216797 0)"/>
     </g>
    </g>
   </g>
  </g>
  <g id="axes_3">
   <g id="patch_38">
    <path d="M 154.96 2042.477848 
L 1501.47 2042.477848 
L 1501.47 1060.437042 
L 154.96 1060.437042 
z
" style="fill: #ffffff"/>
   </g>
   <g id="patch_39">
    <path d="M 216.165 2042.477848 
L 307.321383 2042.477848 
L 307.321383 1107.20089 
L 216.165 1107.20089 
z
" clip-path="url(#pdf6580490a)" style="fill: #1f77b4"/>
   </g>
   <g id="patch_40">
    <path d="M 476.611809 2042.477848 
L 567.768191 2042.477848 
L 567.768191 1108.529491 
L 476.611809 1108.529491 
z
" clip-path="url(#pdf6580490a)" style="fill: #1f77b4"/>
   </g>
   <g id="patch_41">
    <path d="M 737.058617 2042.477848 
L 828.215 2042.477848 
L 828.215 1112.24896 
L 737.058617 1112.24896 
z
" clip-path="url(#pdf6580490a)" style="fill: #1f77b4"/>
   </g>
   <g id="patch_42">
    <path d="M 997.505426 2042.477848 
L 1088.661809 2042.477848 
L 1088.661809 1190.606529 
L 997.505426 1190.606529 
z
" clip-path="url(#pdf6580490a)" style="fill: #1f77b4"/>
   </g>
   <g id="patch_43">
    <path d="M 1257.952234 2042.477848 
L 1349.108617 2042.477848 
L 1349.108617 1598.282273 
L 1257.952234 1598.282273 
z
" clip-path="url(#pdf6580490a)" style="fill: #1f77b4"/>
   </g>
   <g id="patch_44">
    <path d="M 307.321383 2042.477848 
L 398.477766 2042.477848 
L 398.477766 1251.018941 
L 307.321383 1251.018941 
z
" clip-path="url(#pdf6580490a)" style="fill: #ff7f0e"/>
   </g>
   <g id="patch_45">
    <path d="M 567.768191 2042.477848 
L 658.924574 2042.477848 
L 658.924574 1252.347542 
L 567.768191 1252.347542 
z
" clip-path="url(#pdf6580490a)" style="fill: #ff7f0e"/>
   </g>
   <g id="patch_46">
    <path d="M 828.215 2042.477848 
L 919.371383 2042.477848 
L 919.371383 1256.067012 
L 828.215 1256.067012 
z
" clip-path="url(#pdf6580490a)" style="fill: #ff7f0e"/>
   </g>
   <g id="patch_47">
    <path d="M 1088.661809 2042.477848 
L 1179.818191 2042.477848 
L 1179.818191 1334.42458 
L 1088.661809 1334.42458 
z
" clip-path="url(#pdf6580490a)" style="fill: #ff7f0e"/>
   </g>
   <g id="patch_48">
    <path d="M 1349.108617 2042.477848 
L 1440.265 2042.477848 
L 1440.265 1603.892289 
L 1349.108617 1603.892289 
z
" clip-path="url(#pdf6580490a)" style="fill: #ff7f0e"/>
   </g>
   <g id="matplotlib.axis_5">
    <g id="xtick_11">
     <g id="line2d_27">
      <g>
       <use xlink:href="#m82e9089370" x="307.321383" y="2042.477848" style="stroke: #000000; stroke-width: 0.8"/>
      </g>
     </g>
     <g id="text_23">
      <!-- v0 -->
      <g transform="translate(282.758883 2079.871598) scale(0.4 -0.4)">
       <defs>
        <path id="DejaVuSans-76" d="M 191 3500 
L 800 3500 
L 1894 563 
L 2988 3500 
L 3597 3500 
L 2284 0 
L 1503 0 
L 191 3500 
z
" transform="scale(0.015625)"/>
       </defs>
       <use xlink:href="#DejaVuSans-76"/>
       <use xlink:href="#DejaVuSans-30" transform="translate(59.179688 0)"/>
      </g>
     </g>
    </g>
    <g id="xtick_12">
     <g id="line2d_28">
      <g>
       <use xlink:href="#m82e9089370" x="567.768191" y="2042.477848" style="stroke: #000000; stroke-width: 0.8"/>
      </g>
     </g>
     <g id="text_24">
      <!-- v1 -->
      <g transform="translate(543.205691 2079.871598) scale(0.4 -0.4)">
       <use xlink:href="#DejaVuSans-76"/>
       <use xlink:href="#DejaVuSans-31" transform="translate(59.179688 0)"/>
      </g>
     </g>
    </g>
    <g id="xtick_13">
     <g id="line2d_29">
      <g>
       <use xlink:href="#m82e9089370" x="828.215" y="2042.477848" style="stroke: #000000; stroke-width: 0.8"/>
      </g>
     </g>
     <g id="text_25">
      <!-- v2 -->
      <g transform="translate(803.6525 2079.871598) scale(0.4 -0.4)">
       <use xlink:href="#DejaVuSans-76"/>
       <use xlink:href="#DejaVuSans-32" transform="translate(59.179688 0)"/>
      </g>
     </g>
    </g>
    <g id="xtick_14">
     <g id="line2d_30">
      <g>
       <use xlink:href="#m82e9089370" x="1088.661809" y="2042.477848" style="stroke: #000000; stroke-width: 0.8"/>
      </g>
     </g>
     <g id="text_26">
      <!-- v3 -->
      <g transform="translate(1064.099309 2079.871598) scale(0.4 -0.4)">
       <use xlink:href="#DejaVuSans-76"/>
       <use xlink:href="#DejaVuSans-33" transform="translate(59.179688 0)"/>
      </g>
     </g>
    </g>
    <g id="xtick_15">
     <g id="line2d_31">
      <g>
       <use xlink:href="#m82e9089370" x="1349.108617" y="2042.477848" style="stroke: #000000; stroke-width: 0.8"/>
      </g>
     </g>
     <g id="text_27">
      <!-- v3+unroll -->
      <g style="fill: #0000ff" transform="translate(1239.605492 2079.871598) scale(0.4 -0.4)">
       <defs>
        <path id="DejaVuSans-BoldOblique-76" d="M 403 3500 
L 1434 3500 
L 1888 1056 
L 3206 3500 
L 4341 3500 
L 2284 0 
L 1100 0 
L 403 3500 
z
" transform="scale(0.015625)"/>
        <path id="DejaVuSans-BoldOblique-33" d="M 3022 2516 
Q 3375 2434 3572 2187 
Q 3769 1941 3769 1581 
Q 3769 806 3155 357 
Q 2541 -91 1466 -91 
Q 1059 -91 692 -33 
Q 325 25 0 141 
L 178 1069 
Q 456 906 784 817 
Q 1113 728 1441 728 
Q 1969 728 2276 926 
Q 2584 1125 2584 1459 
Q 2584 1738 2350 1877 
Q 2116 2016 1644 2016 
L 1166 2016 
L 1319 2791 
L 1825 2791 
Q 2316 2791 2602 2969 
Q 2888 3147 2888 3450 
Q 2888 3688 2689 3813 
Q 2491 3938 2113 3938 
Q 1847 3938 1534 3869 
Q 1222 3800 884 3669 
L 1056 4550 
Q 1425 4650 1783 4700 
Q 2141 4750 2491 4750 
Q 3281 4750 3679 4487 
Q 4078 4225 4078 3706 
Q 4078 3241 3801 2930 
Q 3525 2619 3022 2516 
z
" transform="scale(0.015625)"/>
        <path id="DejaVuSans-BoldOblique-2b" d="M 3053 4013 
L 3053 2375 
L 4684 2375 
L 4684 1638 
L 3053 1638 
L 3053 0 
L 2309 0 
L 2309 1638 
L 678 1638 
L 678 2375 
L 2309 2375 
L 2309 4013 
L 3053 4013 
z
" transform="scale(0.015625)"/>
        <path id="DejaVuSans-BoldOblique-75" d="M 434 1363 
L 844 3500 
L 1966 3500 
L 1613 1678 
Q 1575 1500 1556 1375 
Q 1538 1250 1538 1178 
Q 1538 981 1647 872 
Q 1756 763 1959 763 
Q 2306 763 2556 1031 
Q 2806 1300 2900 1778 
L 3238 3500 
L 4359 3500 
L 3681 0 
L 2553 0 
L 2656 513 
Q 2369 209 2053 59 
Q 1738 -91 1388 -91 
Q 909 -91 646 162 
Q 384 416 384 878 
Q 384 988 396 1109 
Q 409 1231 434 1363 
z
" transform="scale(0.015625)"/>
        <path id="DejaVuSans-BoldOblique-6e" d="M 4128 2131 
L 3713 0 
L 2591 0 
L 2944 1825 
Q 2981 2003 3001 2126 
Q 3022 2250 3022 2322 
Q 3022 2522 2911 2631 
Q 2800 2741 2597 2741 
Q 2250 2741 2001 2470 
Q 1753 2200 1656 1722 
L 1319 0 
L 197 0 
L 878 3500 
L 2003 3500 
L 1900 2988 
Q 2209 3291 2521 3437 
Q 2834 3584 3175 3584 
Q 3659 3584 3921 3331 
Q 4184 3078 4184 2619 
Q 4184 2519 4170 2397 
Q 4156 2275 4128 2131 
z
" transform="scale(0.015625)"/>
        <path id="DejaVuSans-BoldOblique-72" d="M 3291 2547 
Q 3175 2613 3034 2647 
Q 2894 2681 2731 2681 
Q 2303 2681 2020 2406 
Q 1738 2131 1638 1613 
L 1319 0 
L 197 0 
L 878 3500 
L 2003 3500 
L 1881 2900 
Q 2103 3231 2436 3407 
Q 2769 3584 3175 3584 
Q 3234 3584 3309 3578 
Q 3384 3572 3488 3559 
L 3291 2547 
z
" transform="scale(0.015625)"/>
        <path id="DejaVuSans-BoldOblique-6f" d="M 2400 2784 
Q 1966 2784 1684 2390 
Q 1403 1997 1403 1388 
Q 1403 1056 1554 882 
Q 1706 709 1997 709 
Q 2431 709 2712 1104 
Q 2994 1500 2994 2113 
Q 2994 2441 2842 2612 
Q 2691 2784 2400 2784 
z
M 2491 3584 
Q 3272 3584 3719 3187 
Q 4166 2791 4166 2106 
Q 4166 1709 4025 1336 
Q 3884 963 3616 653 
Q 3297 284 2862 96 
Q 2428 -91 1894 -91 
Q 1122 -91 676 306 
Q 231 703 231 1388 
Q 231 1781 375 2157 
Q 519 2534 788 2847 
Q 1100 3209 1533 3396 
Q 1966 3584 2491 3584 
z
" transform="scale(0.015625)"/>
        <path id="DejaVuSans-BoldOblique-6c" d="M 1141 4863 
L 2266 4863 
L 1319 0 
L 197 0 
L 1141 4863 
z
" transform="scale(0.015625)"/>
       </defs>
       <use xlink:href="#DejaVuSans-BoldOblique-76"/>
       <use xlink:href="#DejaVuSans-BoldOblique-33" transform="translate(65.185547 0)"/>
       <use xlink:href="#DejaVuSans-BoldOblique-2b" transform="translate(134.765625 0)"/>
       <use xlink:href="#DejaVuSans-BoldOblique-75" transform="translate(218.554688 0)"/>
       <use xlink:href="#DejaVuSans-BoldOblique-6e" transform="translate(289.746094 0)"/>
       <use xlink:href="#DejaVuSans-BoldOblique-72" transform="translate(360.9375 0)"/>
       <use xlink:href="#DejaVuSans-BoldOblique-6f" transform="translate(410.253906 0)"/>
       <use xlink:href="#DejaVuSans-BoldOblique-6c" transform="translate(478.955078 0)"/>
       <use xlink:href="#DejaVuSans-BoldOblique-6c" transform="translate(513.232422 0)"/>
      </g>
     </g>
    </g>
   </g>
   <g id="matplotlib.axis_6">
    <g id="ytick_17">
     <g id="line2d_32">
      <g>
       <use xlink:href="#m93d3328e62" x="154.96" y="2042.477848" style="stroke: #000000; stroke-width: 0.8"/>
      </g>
     </g>
     <g id="text_28">
      <!-- 0 -->
      <g transform="translate(122.51 2057.674723) scale(0.4 -0.4)">
       <use xlink:href="#DejaVuSans-30"/>
      </g>
     </g>
    </g>
    <g id="ytick_18">
     <g id="line2d_33">
      <g>
       <use xlink:href="#m93d3328e62" x="154.96" y="1901.69449" style="stroke: #000000; stroke-width: 0.8"/>
      </g>
     </g>
     <g id="text_29">
      <!-- 10 -->
      <g transform="translate(97.06 1916.891365) scale(0.4 -0.4)">
       <use xlink:href="#DejaVuSans-31"/>
       <use xlink:href="#DejaVuSans-30" transform="translate(63.623047 0)"/>
      </g>
     </g>
    </g>
    <g id="ytick_19">
     <g id="line2d_34">
      <g>
       <use xlink:href="#m93d3328e62" x="154.96" y="1760.911133" style="stroke: #000000; stroke-width: 0.8"/>
      </g>
     </g>
     <g id="text_30">
      <!-- 20 -->
      <g transform="translate(97.06 1776.108008) scale(0.4 -0.4)">
       <use xlink:href="#DejaVuSans-32"/>
       <use xlink:href="#DejaVuSans-30" transform="translate(63.623047 0)"/>
      </g>
     </g>
    </g>
    <g id="ytick_20">
     <g id="line2d_35">
      <g>
       <use xlink:href="#m93d3328e62" x="154.96" y="1620.127776" style="stroke: #000000; stroke-width: 0.8"/>
      </g>
     </g>
     <g id="text_31">
      <!-- 30 -->
      <g transform="translate(97.06 1635.324651) scale(0.4 -0.4)">
       <use xlink:href="#DejaVuSans-33"/>
       <use xlink:href="#DejaVuSans-30" transform="translate(63.623047 0)"/>
      </g>
     </g>
    </g>
    <g id="ytick_21">
     <g id="line2d_36">
      <g>
       <use xlink:href="#m93d3328e62" x="154.96" y="1479.344419" style="stroke: #000000; stroke-width: 0.8"/>
      </g>
     </g>
     <g id="text_32">
      <!-- 40 -->
      <g transform="translate(97.06 1494.541294) scale(0.4 -0.4)">
       <use xlink:href="#DejaVuSans-34"/>
       <use xlink:href="#DejaVuSans-30" transform="translate(63.623047 0)"/>
      </g>
     </g>
    </g>
    <g id="ytick_22">
     <g id="line2d_37">
      <g>
       <use xlink:href="#m93d3328e62" x="154.96" y="1338.561061" style="stroke: #000000; stroke-width: 0.8"/>
      </g>
     </g>
     <g id="text_33">
      <!-- 50 -->
      <g transform="translate(97.06 1353.757936) scale(0.4 -0.4)">
       <use xlink:href="#DejaVuSans-35"/>
       <use xlink:href="#DejaVuSans-30" transform="translate(63.623047 0)"/>
      </g>
     </g>
    </g>
    <g id="ytick_23">
     <g id="line2d_38">
      <g>
       <use xlink:href="#m93d3328e62" x="154.96" y="1197.777704" style="stroke: #000000; stroke-width: 0.8"/>
      </g>
     </g>
     <g id="text_34">
      <!-- 60 -->
      <g transform="translate(97.06 1212.974579) scale(0.4 -0.4)">
       <use xlink:href="#DejaVuSans-36"/>
       <use xlink:href="#DejaVuSans-30" transform="translate(63.623047 0)"/>
      </g>
     </g>
    </g>
   </g>
   <g id="patch_49">
    <path d="M 154.96 2042.477848 
L 154.96 1060.437042 
" style="fill: none; stroke: #000000; stroke-width: 0.8; stroke-linejoin: miter; stroke-linecap: square"/>
   </g>
   <g id="patch_50">
    <path d="M 1501.47 2042.477848 
L 1501.47 1060.437042 
" style="fill: none; stroke: #000000; stroke-width: 0.8; stroke-linejoin: miter; stroke-linecap: square"/>
   </g>
   <g id="patch_51">
    <path d="M 154.96 2042.477848 
L 1501.47 2042.477848 
" style="fill: none; stroke: #000000; stroke-width: 0.8; stroke-linejoin: miter; stroke-linecap: square"/>
   </g>
   <g id="patch_52">
    <path d="M 154.96 1060.437042 
L 1501.47 1060.437042 
" style="fill: none; stroke: #000000; stroke-width: 0.8; stroke-linejoin: miter; stroke-linecap: square"/>
   </g>
   <g id="text_35">
    <!-- MiniLM -->
    <g transform="translate(758.77125 2140.681928) scale(0.4 -0.4)">
     <defs>
      <path id="DejaVuSans-4c" d="M 628 4666 
L 1259 4666 
L 1259 531 
L 3531 531 
L 3531 0 
L 628 0 
L 628 4666 
z
" transform="scale(0.015625)"/>
     </defs>
     <use xlink:href="#DejaVuSans-4d"/>
     <use xlink:href="#DejaVuSans-69" transform="translate(86.279297 0)"/>
     <use xlink:href="#DejaVuSans-6e" transform="translate(114.0625 0)"/>
     <use xlink:href="#DejaVuSans-69" transform="translate(177.441406 0)"/>
     <use xlink:href="#DejaVuSans-4c" transform="translate(205.224609 0)"/>
     <use xlink:href="#DejaVuSans-4d" transform="translate(260.9375 0)"/>
    </g>
   </g>
   <g id="legend_3">
    <g id="patch_53">
     <path d="M 968.548125 1172.505792 
L 1480.47 1172.505792 
Q 1486.47 1172.505792 1486.47 1166.505792 
L 1486.47 1081.437042 
Q 1486.47 1075.437042 1480.47 1075.437042 
L 968.548125 1075.437042 
Q 962.548125 1075.437042 962.548125 1081.437042 
L 962.548125 1166.505792 
Q 962.548125 1172.505792 968.548125 1172.505792 
z
" style="fill: #ffffff; opacity: 0.8; stroke: #cccccc; stroke-linejoin: miter"/>
    </g>
    <g id="patch_54">
     <path d="M 974.548125 1110.232355 
L 1034.548125 1110.232355 
L 1034.548125 1089.232355 
L 974.548125 1089.232355 
z
" style="fill: #1f77b4"/>
    </g>
    <g id="text_36">
     <!-- Cycle Count -->
     <g transform="translate(1058.548125 1110.232355) scale(0.3 -0.3)">
      <use xlink:href="#DejaVuSans-43"/>
      <use xlink:href="#DejaVuSans-79" transform="translate(69.824219 0)"/>
      <use xlink:href="#DejaVuSans-63" transform="translate(129.003906 0)"/>
      <use xlink:href="#DejaVuSans-6c" transform="translate(183.984375 0)"/>
      <use xlink:href="#DejaVuSans-65" transform="translate(211.767578 0)"/>
      <use xlink:href="#DejaVuSans-20" transform="translate(273.291016 0)"/>
      <use xlink:href="#DejaVuSans-43" transform="translate(305.078125 0)"/>
      <use xlink:href="#DejaVuSans-6f" transform="translate(374.902344 0)"/>
      <use xlink:href="#DejaVuSans-75" transform="translate(436.083984 0)"/>
      <use xlink:href="#DejaVuSans-6e" transform="translate(499.462891 0)"/>
      <use xlink:href="#DejaVuSans-74" transform="translate(562.841797 0)"/>
     </g>
    </g>
    <g id="patch_55">
     <path d="M 974.548125 1154.26673 
L 1034.548125 1154.26673 
L 1034.548125 1133.26673 
L 974.548125 1133.26673 
z
" style="fill: #ff7f0e"/>
    </g>
    <g id="text_37">
     <!-- Instruction Execution Count -->
     <g transform="translate(1058.548125 1154.26673) scale(0.3 -0.3)">
      <use xlink:href="#DejaVuSans-49"/>
      <use xlink:href="#DejaVuSans-6e" transform="translate(29.492188 0)"/>
      <use xlink:href="#DejaVuSans-73" transform="translate(92.871094 0)"/>
      <use xlink:href="#DejaVuSans-74" transform="translate(144.970703 0)"/>
      <use xlink:href="#DejaVuSans-72" transform="translate(184.179688 0)"/>
      <use xlink:href="#DejaVuSans-75" transform="translate(225.292969 0)"/>
      <use xlink:href="#DejaVuSans-63" transform="translate(288.671875 0)"/>
      <use xlink:href="#DejaVuSans-74" transform="translate(343.652344 0)"/>
      <use xlink:href="#DejaVuSans-69" transform="translate(382.861328 0)"/>
      <use xlink:href="#DejaVuSans-6f" transform="translate(410.644531 0)"/>
      <use xlink:href="#DejaVuSans-6e" transform="translate(471.826172 0)"/>
      <use xlink:href="#DejaVuSans-20" transform="translate(535.205078 0)"/>
      <use xlink:href="#DejaVuSans-45" transform="translate(566.992188 0)"/>
      <use xlink:href="#DejaVuSans-78" transform="translate(630.175781 0)"/>
      <use xlink:href="#DejaVuSans-65" transform="translate(686.230469 0)"/>
      <use xlink:href="#DejaVuSans-63" transform="translate(747.753906 0)"/>
      <use xlink:href="#DejaVuSans-75" transform="translate(802.734375 0)"/>
      <use xlink:href="#DejaVuSans-74" transform="translate(866.113281 0)"/>
      <use xlink:href="#DejaVuSans-69" transform="translate(905.322266 0)"/>
      <use xlink:href="#DejaVuSans-6f" transform="translate(933.105469 0)"/>
      <use xlink:href="#DejaVuSans-6e" transform="translate(994.287109 0)"/>
      <use xlink:href="#DejaVuSans-20" transform="translate(1057.666016 0)"/>
      <use xlink:href="#DejaVuSans-43" transform="translate(1089.453125 0)"/>
      <use xlink:href="#DejaVuSans-6f" transform="translate(1159.277344 0)"/>
      <use xlink:href="#DejaVuSans-75" transform="translate(1220.458984 0)"/>
      <use xlink:href="#DejaVuSans-6e" transform="translate(1283.837891 0)"/>
      <use xlink:href="#DejaVuSans-74" transform="translate(1347.216797 0)"/>
     </g>
    </g>
   </g>
  </g>
  <g id="axes_4">
   <g id="patch_56">
    <path d="M 1578.85 2042.477848 
L 2925.36 2042.477848 
L 2925.36 1060.437042 
L 1578.85 1060.437042 
z
" style="fill: #ffffff"/>
   </g>
   <g id="patch_57">
    <path d="M 1640.055 2042.477848 
L 1731.211383 2042.477848 
L 1731.211383 1107.20089 
L 1640.055 1107.20089 
z
" clip-path="url(#pdda50aca07)" style="fill: #1f77b4"/>
   </g>
   <g id="patch_58">
    <path d="M 1900.501809 2042.477848 
L 1991.658191 2042.477848 
L 1991.658191 1108.572391 
L 1900.501809 1108.572391 
z
" clip-path="url(#pdda50aca07)" style="fill: #1f77b4"/>
   </g>
   <g id="patch_59">
    <path d="M 2160.948617 2042.477848 
L 2252.105 2042.477848 
L 2252.105 1114.057839 
L 2160.948617 1114.057839 
z
" clip-path="url(#pdda50aca07)" style="fill: #1f77b4"/>
   </g>
   <g id="patch_60">
    <path d="M 2421.395426 2042.477848 
L 2512.551809 2042.477848 
L 2512.551809 1197.114081 
L 2421.395426 1197.114081 
z
" clip-path="url(#pdda50aca07)" style="fill: #1f77b4"/>
   </g>
   <g id="patch_61">
    <path d="M 2681.842234 2042.477848 
L 2772.998617 2042.477848 
L 2772.998617 1623.458233 
L 2681.842234 1623.458233 
z
" clip-path="url(#pdda50aca07)" style="fill: #1f77b4"/>
   </g>
   <g id="patch_62">
    <path d="M 1731.211383 2042.477848 
L 1822.367766 2042.477848 
L 1822.367766 1279.979985 
L 1731.211383 1279.979985 
z
" clip-path="url(#pdda50aca07)" style="fill: #ff7f0e"/>
   </g>
   <g id="patch_63">
    <path d="M 1991.658191 2042.477848 
L 2082.814574 2042.477848 
L 2082.814574 1281.351485 
L 1991.658191 1281.351485 
z
" clip-path="url(#pdda50aca07)" style="fill: #ff7f0e"/>
   </g>
   <g id="patch_64">
    <path d="M 2252.105 2042.477848 
L 2343.261383 2042.477848 
L 2343.261383 1286.836934 
L 2252.105 1286.836934 
z
" clip-path="url(#pdda50aca07)" style="fill: #ff7f0e"/>
   </g>
   <g id="patch_65">
    <path d="M 2512.551809 2042.477848 
L 2603.708191 2042.477848 
L 2603.708191 1369.893176 
L 2512.551809 1369.893176 
z
" clip-path="url(#pdda50aca07)" style="fill: #ff7f0e"/>
   </g>
   <g id="patch_66">
    <path d="M 2772.998617 2042.477848 
L 2864.155 2042.477848 
L 2864.155 1627.348009 
L 2772.998617 1627.348009 
z
" clip-path="url(#pdda50aca07)" style="fill: #ff7f0e"/>
   </g>
   <g id="matplotlib.axis_7">
    <g id="xtick_16">
     <g id="line2d_39">
      <g>
       <use xlink:href="#m82e9089370" x="1731.211383" y="2042.477848" style="stroke: #000000; stroke-width: 0.8"/>
      </g>
     </g>
     <g id="text_38">
      <!-- v0 -->
      <g transform="translate(1706.648883 2079.871598) scale(0.4 -0.4)">
       <use xlink:href="#DejaVuSans-76"/>
       <use xlink:href="#DejaVuSans-30" transform="translate(59.179688 0)"/>
      </g>
     </g>
    </g>
    <g id="xtick_17">
     <g id="line2d_40">
      <g>
       <use xlink:href="#m82e9089370" x="1991.658191" y="2042.477848" style="stroke: #000000; stroke-width: 0.8"/>
      </g>
     </g>
     <g id="text_39">
      <!-- v1 -->
      <g transform="translate(1967.095691 2079.871598) scale(0.4 -0.4)">
       <use xlink:href="#DejaVuSans-76"/>
       <use xlink:href="#DejaVuSans-31" transform="translate(59.179688 0)"/>
      </g>
     </g>
    </g>
    <g id="xtick_18">
     <g id="line2d_41">
      <g>
       <use xlink:href="#m82e9089370" x="2252.105" y="2042.477848" style="stroke: #000000; stroke-width: 0.8"/>
      </g>
     </g>
     <g id="text_40">
      <!-- v2 -->
      <g transform="translate(2227.5425 2079.871598) scale(0.4 -0.4)">
       <use xlink:href="#DejaVuSans-76"/>
       <use xlink:href="#DejaVuSans-32" transform="translate(59.179688 0)"/>
      </g>
     </g>
    </g>
    <g id="xtick_19">
     <g id="line2d_42">
      <g>
       <use xlink:href="#m82e9089370" x="2512.551809" y="2042.477848" style="stroke: #000000; stroke-width: 0.8"/>
      </g>
     </g>
     <g id="text_41">
      <!-- v3 -->
      <g transform="translate(2487.989309 2079.871598) scale(0.4 -0.4)">
       <use xlink:href="#DejaVuSans-76"/>
       <use xlink:href="#DejaVuSans-33" transform="translate(59.179688 0)"/>
      </g>
     </g>
    </g>
    <g id="xtick_20">
     <g id="line2d_43">
      <g>
       <use xlink:href="#m82e9089370" x="2772.998617" y="2042.477848" style="stroke: #000000; stroke-width: 0.8"/>
      </g>
     </g>
     <g id="text_42">
      <!-- v3+unroll -->
      <g style="fill: #0000ff" transform="translate(2663.495492 2079.871598) scale(0.4 -0.4)">
       <use xlink:href="#DejaVuSans-BoldOblique-76"/>
       <use xlink:href="#DejaVuSans-BoldOblique-33" transform="translate(65.185547 0)"/>
       <use xlink:href="#DejaVuSans-BoldOblique-2b" transform="translate(134.765625 0)"/>
       <use xlink:href="#DejaVuSans-BoldOblique-75" transform="translate(218.554688 0)"/>
       <use xlink:href="#DejaVuSans-BoldOblique-6e" transform="translate(289.746094 0)"/>
       <use xlink:href="#DejaVuSans-BoldOblique-72" transform="translate(360.9375 0)"/>
       <use xlink:href="#DejaVuSans-BoldOblique-6f" transform="translate(410.253906 0)"/>
       <use xlink:href="#DejaVuSans-BoldOblique-6c" transform="translate(478.955078 0)"/>
       <use xlink:href="#DejaVuSans-BoldOblique-6c" transform="translate(513.232422 0)"/>
      </g>
     </g>
    </g>
   </g>
   <g id="matplotlib.axis_8">
    <g id="ytick_24">
     <g id="line2d_44">
      <g>
       <use xlink:href="#m93d3328e62" x="1578.85" y="2042.477848" style="stroke: #000000; stroke-width: 0.8"/>
      </g>
     </g>
     <g id="text_43">
      <!-- 0 -->
      <g transform="translate(1546.4 2057.674723) scale(0.4 -0.4)">
       <use xlink:href="#DejaVuSans-30"/>
      </g>
     </g>
    </g>
    <g id="ytick_25">
     <g id="line2d_45">
      <g>
       <use xlink:href="#m93d3328e62" x="1578.85" y="1921.370207" style="stroke: #000000; stroke-width: 0.8"/>
      </g>
     </g>
     <g id="text_44">
      <!-- 10 -->
      <g transform="translate(1520.95 1936.567082) scale(0.4 -0.4)">
       <use xlink:href="#DejaVuSans-31"/>
       <use xlink:href="#DejaVuSans-30" transform="translate(63.623047 0)"/>
      </g>
     </g>
    </g>
    <g id="ytick_26">
     <g id="line2d_46">
      <g>
       <use xlink:href="#m93d3328e62" x="1578.85" y="1800.262567" style="stroke: #000000; stroke-width: 0.8"/>
      </g>
     </g>
     <g id="text_45">
      <!-- 20 -->
      <g transform="translate(1520.95 1815.459442) scale(0.4 -0.4)">
       <use xlink:href="#DejaVuSans-32"/>
       <use xlink:href="#DejaVuSans-30" transform="translate(63.623047 0)"/>
      </g>
     </g>
    </g>
    <g id="ytick_27">
     <g id="line2d_47">
      <g>
       <use xlink:href="#m93d3328e62" x="1578.85" y="1679.154926" style="stroke: #000000; stroke-width: 0.8"/>
      </g>
     </g>
     <g id="text_46">
      <!-- 30 -->
      <g transform="translate(1520.95 1694.351801) scale(0.4 -0.4)">
       <use xlink:href="#DejaVuSans-33"/>
       <use xlink:href="#DejaVuSans-30" transform="translate(63.623047 0)"/>
      </g>
     </g>
    </g>
    <g id="ytick_28">
     <g id="line2d_48">
      <g>
       <use xlink:href="#m93d3328e62" x="1578.85" y="1558.047286" style="stroke: #000000; stroke-width: 0.8"/>
      </g>
     </g>
     <g id="text_47">
      <!-- 40 -->
      <g transform="translate(1520.95 1573.244161) scale(0.4 -0.4)">
       <use xlink:href="#DejaVuSans-34"/>
       <use xlink:href="#DejaVuSans-30" transform="translate(63.623047 0)"/>
      </g>
     </g>
    </g>
    <g id="ytick_29">
     <g id="line2d_49">
      <g>
       <use xlink:href="#m93d3328e62" x="1578.85" y="1436.939646" style="stroke: #000000; stroke-width: 0.8"/>
      </g>
     </g>
     <g id="text_48">
      <!-- 50 -->
      <g transform="translate(1520.95 1452.136521) scale(0.4 -0.4)">
       <use xlink:href="#DejaVuSans-35"/>
       <use xlink:href="#DejaVuSans-30" transform="translate(63.623047 0)"/>
      </g>
     </g>
    </g>
    <g id="ytick_30">
     <g id="line2d_50">
      <g>
       <use xlink:href="#m93d3328e62" x="1578.85" y="1315.832005" style="stroke: #000000; stroke-width: 0.8"/>
      </g>
     </g>
     <g id="text_49">
      <!-- 60 -->
      <g transform="translate(1520.95 1331.02888) scale(0.4 -0.4)">
       <use xlink:href="#DejaVuSans-36"/>
       <use xlink:href="#DejaVuSans-30" transform="translate(63.623047 0)"/>
      </g>
     </g>
    </g>
    <g id="ytick_31">
     <g id="line2d_51">
      <g>
       <use xlink:href="#m93d3328e62" x="1578.85" y="1194.724365" style="stroke: #000000; stroke-width: 0.8"/>
      </g>
     </g>
     <g id="text_50">
      <!-- 70 -->
      <g transform="translate(1520.95 1209.92124) scale(0.4 -0.4)">
       <use xlink:href="#DejaVuSans-37"/>
       <use xlink:href="#DejaVuSans-30" transform="translate(63.623047 0)"/>
      </g>
     </g>
    </g>
    <g id="ytick_32">
     <g id="line2d_52">
      <g>
       <use xlink:href="#m93d3328e62" x="1578.85" y="1073.616724" style="stroke: #000000; stroke-width: 0.8"/>
      </g>
     </g>
     <g id="text_51">
      <!-- 80 -->
      <g transform="translate(1520.95 1088.813599) scale(0.4 -0.4)">
       <use xlink:href="#DejaVuSans-38"/>
       <use xlink:href="#DejaVuSans-30" transform="translate(63.623047 0)"/>
      </g>
     </g>
    </g>
   </g>
   <g id="patch_67">
    <path d="M 1578.85 2042.477848 
L 1578.85 1060.437042 
" style="fill: none; stroke: #000000; stroke-width: 0.8; stroke-linejoin: miter; stroke-linecap: square"/>
   </g>
   <g id="patch_68">
    <path d="M 2925.36 2042.477848 
L 2925.36 1060.437042 
" style="fill: none; stroke: #000000; stroke-width: 0.8; stroke-linejoin: miter; stroke-linecap: square"/>
   </g>
   <g id="patch_69">
    <path d="M 1578.85 2042.477848 
L 2925.36 2042.477848 
" style="fill: none; stroke: #000000; stroke-width: 0.8; stroke-linejoin: miter; stroke-linecap: square"/>
   </g>
   <g id="patch_70">
    <path d="M 1578.85 1060.437042 
L 2925.36 1060.437042 
" style="fill: none; stroke: #000000; stroke-width: 0.8; stroke-linejoin: miter; stroke-linecap: square"/>
   </g>
   <g id="text_52">
    <!-- SqueezeBERT -->
    <g transform="translate(2115.59875 2140.681928) scale(0.4 -0.4)">
     <defs>
      <path id="DejaVuSans-53" d="M 3425 4513 
L 3425 3897 
Q 3066 4069 2747 4153 
Q 2428 4238 2131 4238 
Q 1616 4238 1336 4038 
Q 1056 3838 1056 3469 
Q 1056 3159 1242 3001 
Q 1428 2844 1947 2747 
L 2328 2669 
Q 3034 2534 3370 2195 
Q 3706 1856 3706 1288 
Q 3706 609 3251 259 
Q 2797 -91 1919 -91 
Q 1588 -91 1214 -16 
Q 841 59 441 206 
L 441 856 
Q 825 641 1194 531 
Q 1563 422 1919 422 
Q 2459 422 2753 634 
Q 3047 847 3047 1241 
Q 3047 1584 2836 1778 
Q 2625 1972 2144 2069 
L 1759 2144 
Q 1053 2284 737 2584 
Q 422 2884 422 3419 
Q 422 4038 858 4394 
Q 1294 4750 2059 4750 
Q 2388 4750 2728 4690 
Q 3069 4631 3425 4513 
z
" transform="scale(0.015625)"/>
      <path id="DejaVuSans-71" d="M 947 1747 
Q 947 1113 1208 752 
Q 1469 391 1925 391 
Q 2381 391 2643 752 
Q 2906 1113 2906 1747 
Q 2906 2381 2643 2742 
Q 2381 3103 1925 3103 
Q 1469 3103 1208 2742 
Q 947 2381 947 1747 
z
M 2906 525 
Q 2725 213 2448 61 
Q 2172 -91 1784 -91 
Q 1150 -91 751 415 
Q 353 922 353 1747 
Q 353 2572 751 3078 
Q 1150 3584 1784 3584 
Q 2172 3584 2448 3432 
Q 2725 3281 2906 2969 
L 2906 3500 
L 3481 3500 
L 3481 -1331 
L 2906 -1331 
L 2906 525 
z
" transform="scale(0.015625)"/>
      <path id="DejaVuSans-7a" d="M 353 3500 
L 3084 3500 
L 3084 2975 
L 922 459 
L 3084 459 
L 3084 0 
L 275 0 
L 275 525 
L 2438 3041 
L 353 3041 
L 353 3500 
z
" transform="scale(0.015625)"/>
     </defs>
     <use xlink:href="#DejaVuSans-53"/>
     <use xlink:href="#DejaVuSans-71" transform="translate(63.476562 0)"/>
     <use xlink:href="#DejaVuSans-75" transform="translate(126.953125 0)"/>
     <use xlink:href="#DejaVuSans-65" transform="translate(190.332031 0)"/>
     <use xlink:href="#DejaVuSans-65" transform="translate(251.855469 0)"/>
     <use xlink:href="#DejaVuSans-7a" transform="translate(313.378906 0)"/>
     <use xlink:href="#DejaVuSans-65" transform="translate(365.869141 0)"/>
     <use xlink:href="#DejaVuSans-42" transform="translate(427.392578 0)"/>
     <use xlink:href="#DejaVuSans-45" transform="translate(495.996094 0)"/>
     <use xlink:href="#DejaVuSans-52" transform="translate(559.179688 0)"/>
     <use xlink:href="#DejaVuSans-54" transform="translate(621.412109 0)"/>
    </g>
   </g>
   <g id="legend_4">
    <g id="patch_71">
     <path d="M 2392.438125 1172.505792 
L 2904.36 1172.505792 
Q 2910.36 1172.505792 2910.36 1166.505792 
L 2910.36 1081.437042 
Q 2910.36 1075.437042 2904.36 1075.437042 
L 2392.438125 1075.437042 
Q 2386.438125 1075.437042 2386.438125 1081.437042 
L 2386.438125 1166.505792 
Q 2386.438125 1172.505792 2392.438125 1172.505792 
z
" style="fill: #ffffff; opacity: 0.8; stroke: #cccccc; stroke-linejoin: miter"/>
    </g>
    <g id="patch_72">
     <path d="M 2398.438125 1110.232355 
L 2458.438125 1110.232355 
L 2458.438125 1089.232355 
L 2398.438125 1089.232355 
z
" style="fill: #1f77b4"/>
    </g>
    <g id="text_53">
     <!-- Cycle Count -->
     <g transform="translate(2482.438125 1110.232355) scale(0.3 -0.3)">
      <use xlink:href="#DejaVuSans-43"/>
      <use xlink:href="#DejaVuSans-79" transform="translate(69.824219 0)"/>
      <use xlink:href="#DejaVuSans-63" transform="translate(129.003906 0)"/>
      <use xlink:href="#DejaVuSans-6c" transform="translate(183.984375 0)"/>
      <use xlink:href="#DejaVuSans-65" transform="translate(211.767578 0)"/>
      <use xlink:href="#DejaVuSans-20" transform="translate(273.291016 0)"/>
      <use xlink:href="#DejaVuSans-43" transform="translate(305.078125 0)"/>
      <use xlink:href="#DejaVuSans-6f" transform="translate(374.902344 0)"/>
      <use xlink:href="#DejaVuSans-75" transform="translate(436.083984 0)"/>
      <use xlink:href="#DejaVuSans-6e" transform="translate(499.462891 0)"/>
      <use xlink:href="#DejaVuSans-74" transform="translate(562.841797 0)"/>
     </g>
    </g>
    <g id="patch_73">
     <path d="M 2398.438125 1154.26673 
L 2458.438125 1154.26673 
L 2458.438125 1133.26673 
L 2398.438125 1133.26673 
z
" style="fill: #ff7f0e"/>
    </g>
    <g id="text_54">
     <!-- Instruction Execution Count -->
     <g transform="translate(2482.438125 1154.26673) scale(0.3 -0.3)">
      <use xlink:href="#DejaVuSans-49"/>
      <use xlink:href="#DejaVuSans-6e" transform="translate(29.492188 0)"/>
      <use xlink:href="#DejaVuSans-73" transform="translate(92.871094 0)"/>
      <use xlink:href="#DejaVuSans-74" transform="translate(144.970703 0)"/>
      <use xlink:href="#DejaVuSans-72" transform="translate(184.179688 0)"/>
      <use xlink:href="#DejaVuSans-75" transform="translate(225.292969 0)"/>
      <use xlink:href="#DejaVuSans-63" transform="translate(288.671875 0)"/>
      <use xlink:href="#DejaVuSans-74" transform="translate(343.652344 0)"/>
      <use xlink:href="#DejaVuSans-69" transform="translate(382.861328 0)"/>
      <use xlink:href="#DejaVuSans-6f" transform="translate(410.644531 0)"/>
      <use xlink:href="#DejaVuSans-6e" transform="translate(471.826172 0)"/>
      <use xlink:href="#DejaVuSans-20" transform="translate(535.205078 0)"/>
      <use xlink:href="#DejaVuSans-45" transform="translate(566.992188 0)"/>
      <use xlink:href="#DejaVuSans-78" transform="translate(630.175781 0)"/>
      <use xlink:href="#DejaVuSans-65" transform="translate(686.230469 0)"/>
      <use xlink:href="#DejaVuSans-63" transform="translate(747.753906 0)"/>
      <use xlink:href="#DejaVuSans-75" transform="translate(802.734375 0)"/>
      <use xlink:href="#DejaVuSans-74" transform="translate(866.113281 0)"/>
      <use xlink:href="#DejaVuSans-69" transform="translate(905.322266 0)"/>
      <use xlink:href="#DejaVuSans-6f" transform="translate(933.105469 0)"/>
      <use xlink:href="#DejaVuSans-6e" transform="translate(994.287109 0)"/>
      <use xlink:href="#DejaVuSans-20" transform="translate(1057.666016 0)"/>
      <use xlink:href="#DejaVuSans-43" transform="translate(1089.453125 0)"/>
      <use xlink:href="#DejaVuSans-6f" transform="translate(1159.277344 0)"/>
      <use xlink:href="#DejaVuSans-75" transform="translate(1220.458984 0)"/>
      <use xlink:href="#DejaVuSans-6e" transform="translate(1283.837891 0)"/>
      <use xlink:href="#DejaVuSans-74" transform="translate(1347.216797 0)"/>
     </g>
    </g>
   </g>
  </g>
  <g id="text_55">
   <!-- Processor Version -->
   <g transform="translate(1328.578125 2189.357848) scale(0.4 -0.4)">
    <defs>
     <path id="DejaVuSans-50" d="M 1259 4147 
L 1259 2394 
L 2053 2394 
Q 2494 2394 2734 2622 
Q 2975 2850 2975 3272 
Q 2975 3691 2734 3919 
Q 2494 4147 2053 4147 
L 1259 4147 
z
M 628 4666 
L 2053 4666 
Q 2838 4666 3239 4311 
Q 3641 3956 3641 3272 
Q 3641 2581 3239 2228 
Q 2838 1875 2053 1875 
L 1259 1875 
L 1259 0 
L 628 0 
L 628 4666 
z
" transform="scale(0.015625)"/>
     <path id="DejaVuSans-56" d="M 1831 0 
L 50 4666 
L 709 4666 
L 2188 738 
L 3669 4666 
L 4325 4666 
L 2547 0 
L 1831 0 
z
" transform="scale(0.015625)"/>
    </defs>
    <use xlink:href="#DejaVuSans-50"/>
    <use xlink:href="#DejaVuSans-72" transform="translate(58.552734 0)"/>
    <use xlink:href="#DejaVuSans-6f" transform="translate(97.416016 0)"/>
    <use xlink:href="#DejaVuSans-63" transform="translate(158.597656 0)"/>
    <use xlink:href="#DejaVuSans-65" transform="translate(213.578125 0)"/>
    <use xlink:href="#DejaVuSans-73" transform="translate(275.101562 0)"/>
    <use xlink:href="#DejaVuSans-73" transform="translate(327.201172 0)"/>
    <use xlink:href="#DejaVuSans-6f" transform="translate(379.300781 0)"/>
    <use xlink:href="#DejaVuSans-72" transform="translate(440.482422 0)"/>
    <use xlink:href="#DejaVuSans-20" transform="translate(481.595703 0)"/>
    <use xlink:href="#DejaVuSans-56" transform="translate(513.382812 0)"/>
    <use xlink:href="#DejaVuSans-65" transform="translate(574.041016 0)"/>
    <use xlink:href="#DejaVuSans-72" transform="translate(635.564453 0)"/>
    <use xlink:href="#DejaVuSans-73" transform="translate(676.677734 0)"/>
    <use xlink:href="#DejaVuSans-69" transform="translate(728.777344 0)"/>
    <use xlink:href="#DejaVuSans-6f" transform="translate(756.560547 0)"/>
    <use xlink:href="#DejaVuSans-6e" transform="translate(817.742188 0)"/>
   </g>
  </g>
  <g id="text_56">
   <!-- Count (Billions) -->
   <g transform="translate(37.59375 1218.792223) rotate(-90) scale(0.4 -0.4)">
    <defs>
     <path id="DejaVuSans-28" d="M 1984 4856 
Q 1566 4138 1362 3434 
Q 1159 2731 1159 2009 
Q 1159 1288 1364 580 
Q 1569 -128 1984 -844 
L 1484 -844 
Q 1016 -109 783 600 
Q 550 1309 550 2009 
Q 550 2706 781 3412 
Q 1013 4119 1484 4856 
L 1984 4856 
z
" transform="scale(0.015625)"/>
     <path id="DejaVuSans-29" d="M 513 4856 
L 1013 4856 
Q 1481 4119 1714 3412 
Q 1947 2706 1947 2009 
Q 1947 1309 1714 600 
Q 1481 -109 1013 -844 
L 513 -844 
Q 928 -128 1133 580 
Q 1338 1288 1338 2009 
Q 1338 2731 1133 3434 
Q 928 4138 513 4856 
z
" transform="scale(0.015625)"/>
    </defs>
    <use xlink:href="#DejaVuSans-43"/>
    <use xlink:href="#DejaVuSans-6f" transform="translate(69.824219 0)"/>
    <use xlink:href="#DejaVuSans-75" transform="translate(131.005859 0)"/>
    <use xlink:href="#DejaVuSans-6e" transform="translate(194.384766 0)"/>
    <use xlink:href="#DejaVuSans-74" transform="translate(257.763672 0)"/>
    <use xlink:href="#DejaVuSans-20" transform="translate(296.972656 0)"/>
    <use xlink:href="#DejaVuSans-28" transform="translate(328.759766 0)"/>
    <use xlink:href="#DejaVuSans-42" transform="translate(367.773438 0)"/>
    <use xlink:href="#DejaVuSans-69" transform="translate(436.376953 0)"/>
    <use xlink:href="#DejaVuSans-6c" transform="translate(464.160156 0)"/>
    <use xlink:href="#DejaVuSans-6c" transform="translate(491.943359 0)"/>
    <use xlink:href="#DejaVuSans-69" transform="translate(519.726562 0)"/>
    <use xlink:href="#DejaVuSans-6f" transform="translate(547.509766 0)"/>
    <use xlink:href="#DejaVuSans-6e" transform="translate(608.691406 0)"/>
    <use xlink:href="#DejaVuSans-73" transform="translate(672.070312 0)"/>
    <use xlink:href="#DejaVuSans-29" transform="translate(724.169922 0)"/>
   </g>
  </g>
 </g>
 <defs>
  <clipPath id="p69a7f4132a">
   <rect x="154.96" y="15.102292" width="1346.51" height="982.040805"/>
  </clipPath>
  <clipPath id="pc189bae560">
   <rect x="1578.85" y="15.102292" width="1346.51" height="982.040805"/>
  </clipPath>
  <clipPath id="pdf6580490a">
   <rect x="154.96" y="1060.437042" width="1346.51" height="982.040805"/>
  </clipPath>
  <clipPath id="pdda50aca07">
   <rect x="1578.85" y="1060.437042" width="1346.51" height="982.040805"/>
  </clipPath>
 </defs>
</svg>
